# xmcd
#
# Track frame offsets:
#	150
#	15012
#	32574
#	47458
#	63737
#	81831
#	97957
#	111799
#	127925
#	146186
#	161766
#
# Disc length: 2400 seconds
#
# Revision: 1
# Processed by: cddbd v1.5.2PL0 Copyright (c) Steve Scherf et al.
# Submitted via: audiograbber 1.83.01
#
DISCID=84095e0b
DTITLE=Sara Evans - Slow Me Down
DYEAR=2014
DGENRE=Country
TTITLE0=Slow Me Down
TTITLE1=Not Over You (Feat. Gavin DeGraw)
TTITLE2=Put My Heart Down
TTITLE3=Can't Stop Loving You (Duet With Isaac Slade)
TTITLE4=You Never Know
TTITLE5=If I Run
TTITLE6=Sweet Spot
TTITLE7=Good Love Is Hard To Find
TTITLE8=Better Off (Feat. Vince Gill)
TTITLE9=Gotta Have You
TTITLE10=Revival
EXTD=
EXTT0=
EXTT1=
EXTT2=
EXTT3=
EXTT4=
EXTT5=
EXTT6=
EXTT7=
EXTT8=
EXTT9=
EXTT10=
PLAYORDER=
